# xmcd
#
# Track frame offsets: 
#        150
#        21353
#        43868
#        65074
#        90334
#        115667
#        134185
#        156371
#        178109
#        201112
#        225782
#        245275
#
# Disc length: 3565 seconds
#
# Revision: 0
# Processed by: cddbd v1.5.2PL0 Copyright (c) Steve Scherf et al.
# Submitted via: ExactAudioCopyFreeDBPlugin 1.0
#
DISCID=a10deb0c
DTITLE=Khanh Ly - Mot coi di ve
DYEAR=1900
DGENRE=
TTITLE0=Mot coi di ve
TTITLE1=Le da
TTITLE2=Mua thu trong mua
TTITLE3=Roi mai toi dua em
TTITLE4=Dau chan dia dang
TTITLE5=Kinh kho
TTITLE6=Xin con goi ten nhau
TTITLE7=Nghin trung xa cach
TTITLE8=Loi tinh buon
TTITLE9=Con gi nua dau
TTITLE10=Hen ho
TTITLE11=Nhung ngay tho mong
EXTD=
EXTT0=
EXTT1=
EXTT2=
EXTT3=
EXTT4=
EXTT5=
EXTT6=
EXTT7=
EXTT8=
EXTT9=
EXTT10=
EXTT11=
PLAYORDER=
